<mxfile host="app.diagrams.net" modified="2022-08-18T07:59:13.692Z" agent="5.0 (Macintosh; Intel Mac OS X 10_15_7) AppleWebKit/537.36 (KHTML, like Gecko) Chrome/99.0.4844.74 Safari/537.36 Edg/99.0.1150.55" etag="I3YaOqmAl9ZxkbP2gYfq" version="20.2.4" type="github">
  <diagram id="I1PyW80tJcdYEMSx6cHc" name="第 1 页">
    <mxGraphModel dx="14529" dy="5017" grid="1" gridSize="10" guides="1" tooltips="1" connect="1" arrows="1" fold="1" page="0" pageScale="1" pageWidth="300000" pageHeight="300000" background="none" math="0" shadow="0">
      <root>
        <mxCell id="0" />
        <mxCell id="1" parent="0" />
        <mxCell id="node17" value="&lt;p style=&quot;margin:0px;margin-top:4px;text-align:center;&quot;&gt;&lt;b&gt;activity_info  /* 活动表 */&lt;/b&gt;&lt;/p&gt;&lt;hr size=&quot;1&quot;/&gt;&lt;p style=&quot;margin:0 0 0 4px;line-height:1.6;&quot;&gt; activity_name  /* 活动名称 */: varchar(200)&lt;br/&gt; activity_type  /* 活动类型（1：满减，2：折扣） */: varchar(10)&lt;br/&gt; activity_desc  /* 活动描述 */: varchar(2000)&lt;br/&gt; start_time  /* 开始时间 */: datetime&lt;br/&gt; end_time  /* 结束时间 */: datetime&lt;br/&gt; create_time  /* 创建时间 */: datetime&lt;/p&gt;&lt;hr size=&quot;1&quot;/&gt;&lt;p style=&quot;margin:0 0 0 4px;line-height:1.6;&quot;&gt; id  /* 活动id */: bigint(20)&lt;/p&gt;" style="verticalAlign=top;align=left;overflow=fill;fontSize=14;fontFamily=Helvetica;html=1;rounded=0;shadow=0;comic=0;labelBackgroundColor=none;strokeWidth=1;" parent="1" vertex="1">
          <mxGeometry x="-1890" y="-2600" width="376" height="186" as="geometry" />
        </mxCell>
        <mxCell id="node9" value="&lt;p style=&quot;margin:0px;margin-top:4px;text-align:center;&quot;&gt;&lt;b&gt;activity_rule  /* 优惠规则 */&lt;/b&gt;&lt;/p&gt;&lt;hr size=&quot;1&quot;/&gt;&lt;p style=&quot;margin:0 0 0 4px;line-height:1.6;&quot;&gt; activity_id  /* 类型 */: int(11)&lt;br/&gt; activity_type  /* 活动类型 */: varchar(20)&lt;br/&gt; condition_amount  /* 满减金额 */: decimal(16,2)&lt;br/&gt; condition_num  /* 满减件数 */: bigint(20)&lt;br/&gt; benefit_amount  /* 优惠金额 */: decimal(16,2)&lt;br/&gt; benefit_discount  /* 优惠折扣 */: decimal(10,2)&lt;br/&gt; benefit_level  /* 优惠级别 */: bigint(20)&lt;/p&gt;&lt;hr size=&quot;1&quot;/&gt;&lt;p style=&quot;margin:0 0 0 4px;line-height:1.6;&quot;&gt; id  /* 编号 */: int(11)&lt;/p&gt;" style="verticalAlign=top;align=left;overflow=fill;fontSize=14;fontFamily=Helvetica;html=1;rounded=0;shadow=0;comic=0;labelBackgroundColor=none;strokeWidth=1;" parent="1" vertex="1">
          <mxGeometry x="-2320" y="-2780" width="311" height="208" as="geometry" />
        </mxCell>
        <mxCell id="node20" value="&lt;p style=&quot;margin:0px;margin-top:4px;text-align:center;&quot;&gt;&lt;b&gt;activity_sku  /* 活动参与商品 */&lt;/b&gt;&lt;/p&gt;&lt;hr size=&quot;1&quot;/&gt;&lt;p style=&quot;margin:0 0 0 4px;line-height:1.6;&quot;&gt; activity_id  /* 活动id  */: bigint(20)&lt;br/&gt; sku_id  /* sku_id */: bigint(20)&lt;br/&gt; create_time  /* 创建时间 */: datetime&lt;/p&gt;&lt;hr size=&quot;1&quot;/&gt;&lt;p style=&quot;margin:0 0 0 4px;line-height:1.6;&quot;&gt; id  /* 编号 */: bigint(20)&lt;/p&gt;" style="verticalAlign=top;align=left;overflow=fill;fontSize=14;fontFamily=Helvetica;html=1;rounded=0;shadow=0;comic=0;labelBackgroundColor=none;strokeWidth=1;" parent="1" vertex="1">
          <mxGeometry x="-1770" y="-2956" width="242" height="146" as="geometry" />
        </mxCell>
        <mxCell id="node13" value="&lt;p style=&quot;margin:0px;margin-top:4px;text-align:center;&quot;&gt;&lt;b&gt;base_attr_info  /* 属性表 */&lt;/b&gt;&lt;/p&gt;&lt;hr size=&quot;1&quot;/&gt;&lt;p style=&quot;margin:0 0 0 4px;line-height:1.6;&quot;&gt; attr_name  /* 属性名称 */: varchar(100)&lt;br/&gt; category_id  /* 分类id */: bigint(20)&lt;br/&gt; category_level  /* 分类层级 */: int(11)&lt;/p&gt;&lt;hr size=&quot;1&quot;/&gt;&lt;p style=&quot;margin:0 0 0 4px;line-height:1.6;&quot;&gt; id  /* 编号 */: bigint(20)&lt;/p&gt;" style="verticalAlign=top;align=left;overflow=fill;fontSize=14;fontFamily=Helvetica;html=1;rounded=0;shadow=0;comic=0;labelBackgroundColor=none;strokeWidth=1;" parent="1" vertex="1">
          <mxGeometry x="-990" y="-2634" width="256" height="144" as="geometry" />
        </mxCell>
        <mxCell id="node45" value="&lt;p style=&quot;margin:0px;margin-top:4px;text-align:center;&quot;&gt;&lt;b&gt;base_attr_value  /* 属性值表 */&lt;/b&gt;&lt;/p&gt;&lt;hr size=&quot;1&quot;/&gt;&lt;p style=&quot;margin:0 0 0 4px;line-height:1.6;&quot;&gt; value_name  /* 属性值名称 */: varchar(100)&lt;br/&gt; attr_id  /* 属性id */: bigint(20)&lt;/p&gt;&lt;hr size=&quot;1&quot;/&gt;&lt;p style=&quot;margin:0 0 0 4px;line-height:1.6;&quot;&gt; id  /* 编号 */: bigint(20)&lt;/p&gt;" style="verticalAlign=top;align=left;overflow=fill;fontSize=14;fontFamily=Helvetica;html=1;rounded=0;shadow=0;comic=0;labelBackgroundColor=none;strokeWidth=1;" parent="1" vertex="1">
          <mxGeometry x="-617.5" y="-2610" width="277" height="120" as="geometry" />
        </mxCell>
        <mxCell id="node19" value="&lt;p style=&quot;margin:0px;margin-top:4px;text-align:center;&quot;&gt;&lt;b&gt;base_category1  /* 一级分类表 */&lt;/b&gt;&lt;/p&gt;&lt;hr size=&quot;1&quot;/&gt;&lt;p style=&quot;margin:0 0 0 4px;line-height:1.6;&quot;&gt; name  /* 分类名称 */: varchar(10)&lt;/p&gt;&lt;hr size=&quot;1&quot;/&gt;&lt;p style=&quot;margin:0 0 0 4px;line-height:1.6;&quot;&gt; id  /* 编号 */: bigint(20)&lt;/p&gt;" style="verticalAlign=top;align=left;overflow=fill;fontSize=14;fontFamily=Helvetica;html=1;rounded=0;shadow=0;comic=0;labelBackgroundColor=none;strokeWidth=1;" parent="1" vertex="1">
          <mxGeometry x="-1387" y="-2290" width="245" height="82" as="geometry" />
        </mxCell>
        <mxCell id="S1Js2mbnpHXQtX6JEDjQ-10" style="edgeStyle=orthogonalEdgeStyle;rounded=1;orthogonalLoop=1;jettySize=auto;html=1;entryX=0.5;entryY=0;entryDx=0;entryDy=0;strokeColor=#FF0080;strokeWidth=5;" edge="1" parent="1" source="node38" target="node19">
          <mxGeometry relative="1" as="geometry" />
        </mxCell>
        <mxCell id="node38" value="&lt;p style=&quot;margin:0px;margin-top:4px;text-align:center;&quot;&gt;&lt;b&gt;base_category2  /* 二级分类表 */&lt;/b&gt;&lt;/p&gt;&lt;hr size=&quot;1&quot;/&gt;&lt;p style=&quot;margin:0 0 0 4px;line-height:1.6;&quot;&gt; name  /* 二级分类名称 */: varchar(200)&lt;br/&gt; category1_id  /* 一级分类编号 */: bigint(20)&lt;/p&gt;&lt;hr size=&quot;1&quot;/&gt;&lt;p style=&quot;margin:0 0 0 4px;line-height:1.6;&quot;&gt; id  /* 编号 */: bigint(20)&lt;/p&gt;" style="verticalAlign=top;align=left;overflow=fill;fontSize=14;fontFamily=Helvetica;html=1;rounded=0;shadow=0;comic=0;labelBackgroundColor=none;strokeWidth=1;" parent="1" vertex="1">
          <mxGeometry x="-1403" y="-2522" width="277" height="152" as="geometry" />
        </mxCell>
        <mxCell id="S1Js2mbnpHXQtX6JEDjQ-9" style="edgeStyle=orthogonalEdgeStyle;rounded=1;orthogonalLoop=1;jettySize=auto;html=1;entryX=0.5;entryY=0;entryDx=0;entryDy=0;strokeColor=#FF0080;strokeWidth=5;" edge="1" parent="1" source="node2" target="node38">
          <mxGeometry relative="1" as="geometry" />
        </mxCell>
        <mxCell id="node2" value="&lt;p style=&quot;margin:0px;margin-top:4px;text-align:center;&quot;&gt;&lt;b&gt;base_category3  /* 三级分类表 */&lt;/b&gt;&lt;/p&gt;&lt;hr size=&quot;1&quot;/&gt;&lt;p style=&quot;margin:0 0 0 4px;line-height:1.6;&quot;&gt; name  /* 三级分类名称 */: varchar(200)&lt;br/&gt; category2_id  /* 二级分类编号 */: bigint(20)&lt;/p&gt;&lt;hr size=&quot;1&quot;/&gt;&lt;p style=&quot;margin:0 0 0 4px;line-height:1.6;&quot;&gt; id  /* 编号 */: bigint(20)&lt;/p&gt;" style="verticalAlign=top;align=left;overflow=fill;fontSize=14;fontFamily=Helvetica;html=1;rounded=0;shadow=0;comic=0;labelBackgroundColor=none;strokeWidth=1;" parent="1" vertex="1">
          <mxGeometry x="-1404" y="-2744" width="279" height="134" as="geometry" />
        </mxCell>
        <mxCell id="node29" value="&lt;p style=&quot;margin:0px;margin-top:4px;text-align:center;&quot;&gt;&lt;b&gt;base_dic&lt;/b&gt;&lt;/p&gt;&lt;hr size=&quot;1&quot;/&gt;&lt;p style=&quot;margin:0 0 0 4px;line-height:1.6;&quot;&gt; dic_code  /* 编号 */: varchar(10)&lt;br/&gt; dic_name  /* 编码名称 */: varchar(100)&lt;br/&gt; parent_code  /* 父编号 */: varchar(10)&lt;br/&gt; create_time  /* 创建日期 */: datetime&lt;br/&gt; operate_time  /* 修改日期 */: datetime&lt;/p&gt;" style="verticalAlign=top;align=left;overflow=fill;fontSize=14;fontFamily=Helvetica;html=1;rounded=0;shadow=0;comic=0;labelBackgroundColor=none;strokeWidth=1;" parent="1" vertex="1">
          <mxGeometry x="-11517" y="1160" width="251" height="141" as="geometry" />
        </mxCell>
        <mxCell id="node10" value="&lt;p style=&quot;margin:0px;margin-top:4px;text-align:center;&quot;&gt;&lt;b&gt;base_frontend_param  /* 前端数据保护表 */&lt;/b&gt;&lt;/p&gt;&lt;hr size=&quot;1&quot;/&gt;&lt;p style=&quot;margin:0 0 0 4px;line-height:1.6;&quot;&gt; code  /* 属性名称 */: varchar(100)&lt;br/&gt; delete_id  /* 分类id */: bigint(20)&lt;/p&gt;&lt;hr size=&quot;1&quot;/&gt;&lt;p style=&quot;margin:0 0 0 4px;line-height:1.6;&quot;&gt; id  /* 编号 */: bigint(20)&lt;/p&gt;" style="verticalAlign=top;align=left;overflow=fill;fontSize=14;fontFamily=Helvetica;html=1;rounded=0;shadow=0;comic=0;labelBackgroundColor=none;strokeWidth=1;" parent="1" vertex="1">
          <mxGeometry x="-11465" y="1369" width="316" height="106" as="geometry" />
        </mxCell>
        <mxCell id="node1" value="&lt;p style=&quot;margin:0px;margin-top:4px;text-align:center;&quot;&gt;&lt;b&gt;base_province&lt;/b&gt;&lt;/p&gt;&lt;hr size=&quot;1&quot;/&gt;&lt;p style=&quot;margin:0 0 0 4px;line-height:1.6;&quot;&gt; id  /* id */: bigint(20)&lt;br/&gt; name  /* 省名称 */: varchar(20)&lt;br/&gt; region_id  /* 大区id */: varchar(20)&lt;br/&gt; area_code  /* 行政区位码 */: varchar(20)&lt;br/&gt; iso_code  /* 国际编码 */: varchar(20)&lt;br/&gt; iso_3166_2  /* ISO3166编码 */: varchar(20)&lt;/p&gt;" style="verticalAlign=top;align=left;overflow=fill;fontSize=14;fontFamily=Helvetica;html=1;rounded=0;shadow=0;comic=0;labelBackgroundColor=none;strokeWidth=1;" parent="1" vertex="1">
          <mxGeometry x="-10065" y="945" width="280" height="163" as="geometry" />
        </mxCell>
        <mxCell id="node6" value="&lt;p style=&quot;margin:0px;margin-top:4px;text-align:center;&quot;&gt;&lt;b&gt;base_region&lt;/b&gt;&lt;/p&gt;&lt;hr size=&quot;1&quot;/&gt;&lt;p style=&quot;margin:0 0 0 4px;line-height:1.6;&quot;&gt; id  /* 大区id */: varchar(20)&lt;br/&gt; region_name  /* 大区名称 */: varchar(20)&lt;/p&gt;" style="verticalAlign=top;align=left;overflow=fill;fontSize=14;fontFamily=Helvetica;html=1;rounded=0;shadow=0;comic=0;labelBackgroundColor=none;strokeWidth=1;" parent="1" vertex="1">
          <mxGeometry x="-11598" y="1598" width="266" height="81" as="geometry" />
        </mxCell>
        <mxCell id="node40" value="&lt;p style=&quot;margin:0px;margin-top:4px;text-align:center;&quot;&gt;&lt;b&gt;base_sale_attr  /* 基本销售属性表 */&lt;/b&gt;&lt;/p&gt;&lt;hr size=&quot;1&quot;/&gt;&lt;p style=&quot;margin:0 0 0 4px;line-height:1.6;&quot;&gt; name  /* 销售属性名称 */: varchar(20)&lt;/p&gt;&lt;hr size=&quot;1&quot;/&gt;&lt;p style=&quot;margin:0 0 0 4px;line-height:1.6;&quot;&gt; id  /* 编号 */: bigint(20)&lt;/p&gt;" style="verticalAlign=top;align=left;overflow=fill;fontSize=14;fontFamily=Helvetica;html=1;rounded=0;shadow=0;comic=0;labelBackgroundColor=none;strokeWidth=1;" parent="1" vertex="1">
          <mxGeometry x="-10288" y="525" width="259" height="82" as="geometry" />
        </mxCell>
        <mxCell id="node41" value="&lt;p style=&quot;margin:0px;margin-top:4px;text-align:center;&quot;&gt;&lt;b&gt;base_trademark  /* 品牌表 */&lt;/b&gt;&lt;/p&gt;&lt;hr size=&quot;1&quot;/&gt;&lt;p style=&quot;margin:0 0 0 4px;line-height:1.6;&quot;&gt; tm_name  /* 属性值 */: varchar(100)&lt;br/&gt; logo_url  /* 品牌logo的图片路径 */: varchar(200)&lt;/p&gt;&lt;hr size=&quot;1&quot;/&gt;&lt;p style=&quot;margin:0 0 0 4px;line-height:1.6;&quot;&gt; id  /* 编号 */: bigint(20)&lt;/p&gt;" style="verticalAlign=top;align=left;overflow=fill;fontSize=14;fontFamily=Helvetica;html=1;rounded=0;shadow=0;comic=0;labelBackgroundColor=none;strokeWidth=1;" parent="1" vertex="1">
          <mxGeometry x="-1798.5" y="-3272" width="299" height="132" as="geometry" />
        </mxCell>
        <mxCell id="node43" value="&lt;p style=&quot;margin:0px;margin-top:4px;text-align:center;&quot;&gt;&lt;b&gt;cart_info  /* 购物车表 用户登录系统时更新冗余 */&lt;/b&gt;&lt;/p&gt;&lt;hr size=&quot;1&quot;/&gt;&lt;p style=&quot;margin:0 0 0 4px;line-height:1.6;&quot;&gt; user_id  /* 用户id */: varchar(200)&lt;br/&gt; sku_id  /* skuid */: bigint(20)&lt;br/&gt; cart_price  /* 放入购物车时价格 */: decimal(10,2)&lt;br/&gt; sku_num  /* 数量 */: int(11)&lt;br/&gt; img_url  /* 图片文件 */: varchar(200)&lt;br/&gt; sku_name  /* sku名称 (冗余) */: varchar(200)&lt;br/&gt; is_checked: int(1)&lt;br/&gt; create_time  /* 创建时间 */: datetime&lt;br/&gt; operate_time  /* 修改时间 */: datetime&lt;br/&gt; is_ordered  /* 是否已经下单 */: bigint(20)&lt;br/&gt; order_time  /* 下单时间 */: datetime&lt;br/&gt; source_type  /* 来源类型 */: varchar(20)&lt;br/&gt; source_id  /* 来源编号 */: bigint(20)&lt;/p&gt;&lt;hr size=&quot;1&quot;/&gt;&lt;p style=&quot;margin:0 0 0 4px;line-height:1.6;&quot;&gt; id  /* 编号 */: bigint(20)&lt;/p&gt;" style="verticalAlign=top;align=left;overflow=fill;fontSize=14;fontFamily=Helvetica;html=1;rounded=0;shadow=0;comic=0;labelBackgroundColor=none;strokeWidth=1;" parent="1" vertex="1">
          <mxGeometry x="-11391" y="-31" width="305" height="340" as="geometry" />
        </mxCell>
        <mxCell id="node3" value="&lt;p style=&quot;margin:0px;margin-top:4px;text-align:center;&quot;&gt;&lt;b&gt;cms_banner  /* 首页banner表 */&lt;/b&gt;&lt;/p&gt;&lt;hr size=&quot;1&quot;/&gt;&lt;p style=&quot;margin:0 0 0 4px;line-height:1.6;&quot;&gt; title  /* 标题 */: varchar(20)&lt;br/&gt; image_url  /* 图片地址 */: varchar(500)&lt;br/&gt; link_url  /* 链接地址 */: varchar(500)&lt;br/&gt; sort  /* 排序 */: int(10) unsigned&lt;/p&gt;&lt;hr size=&quot;1&quot;/&gt;&lt;p style=&quot;margin:0 0 0 4px;line-height:1.6;&quot;&gt; id  /* ID */: bigint(20)&lt;/p&gt;" style="verticalAlign=top;align=left;overflow=fill;fontSize=14;fontFamily=Helvetica;html=1;rounded=0;shadow=0;comic=0;labelBackgroundColor=none;strokeWidth=1;" parent="1" vertex="1">
          <mxGeometry x="-11880" y="1209" width="255" height="142" as="geometry" />
        </mxCell>
        <mxCell id="node39" value="&lt;p style=&quot;margin:0px;margin-top:4px;text-align:center;&quot;&gt;&lt;b&gt;comment_info  /* 商品评论表 */&lt;/b&gt;&lt;/p&gt;&lt;hr size=&quot;1&quot;/&gt;&lt;p style=&quot;margin:0 0 0 4px;line-height:1.6;&quot;&gt; user_id  /* 用户id */: bigint(20)&lt;br/&gt; nick_name  /* 用户昵称 */: varchar(20)&lt;br/&gt; head_img: varchar(200)&lt;br/&gt; sku_id  /* skuid */: bigint(20)&lt;br/&gt; spu_id  /* 商品id */: bigint(20)&lt;br/&gt; order_id  /* 订单编号 */: bigint(20)&lt;br/&gt; appraise  /* 评价 1 好评 2 中评 3 差评 */: varchar(10)&lt;br/&gt; comment_txt  /* 评价内容 */: varchar(2000)&lt;br/&gt; create_time  /* 创建时间 */: datetime&lt;br/&gt; operate_time  /* 修改时间 */: datetime&lt;/p&gt;&lt;hr size=&quot;1&quot;/&gt;&lt;p style=&quot;margin:0 0 0 4px;line-height:1.6;&quot;&gt; id  /* 编号 */: bigint(20)&lt;/p&gt;" style="verticalAlign=top;align=left;overflow=fill;fontSize=14;fontFamily=Helvetica;html=1;rounded=0;shadow=0;comic=0;labelBackgroundColor=none;strokeWidth=1;" parent="1" vertex="1">
          <mxGeometry x="-11119" y="383" width="318" height="274" as="geometry" />
        </mxCell>
        <mxCell id="node26" value="&lt;p style=&quot;margin:0px;margin-top:4px;text-align:center;&quot;&gt;&lt;b&gt;coupon_info  /* 优惠券表 */&lt;/b&gt;&lt;/p&gt;&lt;hr size=&quot;1&quot;/&gt;&lt;p style=&quot;margin:0 0 0 4px;line-height:1.6;&quot;&gt; coupon_name  /* 购物券名称 */: varchar(100)&lt;br/&gt; coupon_type  /* 购物券类型 1 现金券 2 折扣券 3 满减券 4 满件打折券 */: varchar(10)&lt;br/&gt; condition_amount  /* 满额数（3） */: decimal(10,2)&lt;br/&gt; condition_num  /* 满件数（4） */: bigint(20)&lt;br/&gt; activity_id  /* 活动编号 */: bigint(20)&lt;br/&gt; benefit_amount  /* 减金额（1 3） */: decimal(16,2)&lt;br/&gt; benefit_discount  /* 折扣（2 4） */: decimal(10,2)&lt;br/&gt; create_time  /* 创建时间 */: datetime&lt;br/&gt; range_type  /* 范围类型 1、商品(spuid) 2、品类(三级分类id) 3、品牌 */: varchar(10)&lt;br/&gt; limit_num  /* 最多领用次数 */: int(11)&lt;br/&gt; taken_count  /* 已领用次数 */: int(11)&lt;br/&gt; start_time  /* 可以领取的开始日期 */: datetime&lt;br/&gt; end_time  /* 可以领取的结束日期 */: datetime&lt;br/&gt; operate_time  /* 修改时间 */: datetime&lt;br/&gt; expire_time  /* 过期时间 */: datetime&lt;br/&gt; range_desc  /* 范围描述 */: varchar(500)&lt;/p&gt;&lt;hr size=&quot;1&quot;/&gt;&lt;p style=&quot;margin:0 0 0 4px;line-height:1.6;&quot;&gt; id  /* 购物券编号 */: bigint(20)&lt;/p&gt;" style="verticalAlign=top;align=left;overflow=fill;fontSize=14;fontFamily=Helvetica;html=1;rounded=0;shadow=0;comic=0;labelBackgroundColor=none;strokeWidth=1;" parent="1" vertex="1">
          <mxGeometry x="-3031" y="-2120" width="482" height="406" as="geometry" />
        </mxCell>
        <mxCell id="node22" value="&lt;p style=&quot;margin:0px;margin-top:4px;text-align:center;&quot;&gt;&lt;b&gt;coupon_range  /* 优惠券范围表 */&lt;/b&gt;&lt;/p&gt;&lt;hr size=&quot;1&quot;/&gt;&lt;p style=&quot;margin:0 0 0 4px;line-height:1.6;&quot;&gt; coupon_id  /* 优惠券id */: bigint(20)&lt;br/&gt; range_type  /* 范围类型 1、商品(spuid) 2、品类(三级分类id) 3、品牌 */: varchar(10)&lt;br/&gt; range_id: bigint(20)&lt;/p&gt;&lt;hr size=&quot;1&quot;/&gt;&lt;p style=&quot;margin:0 0 0 4px;line-height:1.6;&quot;&gt; id  /* 购物券编号 */: bigint(20)&lt;/p&gt;" style="verticalAlign=top;align=left;overflow=fill;fontSize=14;fontFamily=Helvetica;html=1;rounded=0;shadow=0;comic=0;labelBackgroundColor=none;strokeWidth=1;" parent="1" vertex="1">
          <mxGeometry x="-3030" y="-2370" width="481" height="130" as="geometry" />
        </mxCell>
        <mxCell id="node21" value="&lt;p style=&quot;margin:0px;margin-top:4px;text-align:center;&quot;&gt;&lt;b&gt;coupon_use  /* 优惠券领用表 */&lt;/b&gt;&lt;/p&gt;&lt;hr size=&quot;1&quot;/&gt;&lt;p style=&quot;margin:0 0 0 4px;line-height:1.6;&quot;&gt; coupon_id  /* 购物券ID */: bigint(20)&lt;br/&gt; user_id  /* 用户ID */: bigint(20)&lt;br/&gt; order_id  /* 订单ID */: bigint(20)&lt;br/&gt; coupon_status  /* 购物券状态（1：未使用 2：已使用） */: varchar(10)&lt;br/&gt; create_time  /* 创建时间 */: datetime&lt;br/&gt; get_time  /* 获取时间 */: datetime&lt;br/&gt; using_time  /* 使用时间 */: datetime&lt;br/&gt; used_time  /* 支付时间 */: datetime&lt;br/&gt; expire_time  /* 过期时间 */: datetime&lt;/p&gt;&lt;hr size=&quot;1&quot;/&gt;&lt;p style=&quot;margin:0 0 0 4px;line-height:1.6;&quot;&gt; id  /* 编号 */: bigint(20)&lt;/p&gt;" style="verticalAlign=top;align=left;overflow=fill;fontSize=14;fontFamily=Helvetica;html=1;rounded=0;shadow=0;comic=0;labelBackgroundColor=none;strokeWidth=1;" parent="1" vertex="1">
          <mxGeometry x="-9685" y="-399" width="413" height="252" as="geometry" />
        </mxCell>
        <mxCell id="node27" value="&lt;p style=&quot;margin:0px;margin-top:4px;text-align:center;&quot;&gt;&lt;b&gt;favor_info  /* 商品收藏表 */&lt;/b&gt;&lt;/p&gt;&lt;hr size=&quot;1&quot;/&gt;&lt;p style=&quot;margin:0 0 0 4px;line-height:1.6;&quot;&gt; user_id  /* 用户名称 */: bigint(20)&lt;br/&gt; sku_id  /* skuid */: bigint(20)&lt;br/&gt; spu_id  /* 商品id */: bigint(20)&lt;br/&gt; is_cancel  /* 是否已取消 0 正常 1 已取消 */: varchar(1)&lt;br/&gt; create_time  /* 创建时间 */: datetime&lt;br/&gt; cancel_time  /* 修改时间 */: datetime&lt;/p&gt;&lt;hr size=&quot;1&quot;/&gt;&lt;p style=&quot;margin:0 0 0 4px;line-height:1.6;&quot;&gt; id  /* 编号 */: bigint(20)&lt;/p&gt;" style="verticalAlign=top;align=left;overflow=fill;fontSize=14;fontFamily=Helvetica;html=1;rounded=0;shadow=0;comic=0;labelBackgroundColor=none;strokeWidth=1;" parent="1" vertex="1">
          <mxGeometry x="-11161" y="718" width="323" height="186" as="geometry" />
        </mxCell>
        <mxCell id="node31" value="&lt;p style=&quot;margin:0px;margin-top:4px;text-align:center;&quot;&gt;&lt;b&gt;financial_sku_cost&lt;/b&gt;&lt;/p&gt;&lt;hr size=&quot;1&quot;/&gt;&lt;p style=&quot;margin:0 0 0 4px;line-height:1.6;&quot;&gt; sku_id  /* sku_id */: bigint(20)&lt;br/&gt; sku_name  /* 商品名称 */: varchar(20)&lt;br/&gt; busi_date  /* 业务日期 */: varchar(20)&lt;br/&gt; is_lastest  /* 是否最近 */: varchar(2)&lt;br/&gt; sku_cost  /* 商品结算成本 */: decimal(16,2)&lt;br/&gt; create_time  /* 创建时间 */: datetime&lt;/p&gt;&lt;hr size=&quot;1&quot;/&gt;&lt;p style=&quot;margin:0 0 0 4px;line-height:1.6;&quot;&gt; id: varchar(20)&lt;/p&gt;" style="verticalAlign=top;align=left;overflow=fill;fontSize=14;fontFamily=Helvetica;html=1;rounded=0;shadow=0;comic=0;labelBackgroundColor=none;strokeWidth=1;" parent="1" vertex="1">
          <mxGeometry x="-10037" y="697" width="274" height="186" as="geometry" />
        </mxCell>
        <mxCell id="node23" value="&lt;p style=&quot;margin:0px;margin-top:4px;text-align:center;&quot;&gt;&lt;b&gt;order_detail  /* 订单明细表 */&lt;/b&gt;&lt;/p&gt;&lt;hr size=&quot;1&quot;/&gt;&lt;p style=&quot;margin:0 0 0 4px;line-height:1.6;&quot;&gt; order_id  /* 订单编号 */: bigint(20)&lt;br/&gt; sku_id  /* sku_id */: bigint(20)&lt;br/&gt; sku_name  /* sku名称（冗余) */: varchar(200)&lt;br/&gt; img_url  /* 图片名称（冗余) */: varchar(200)&lt;br/&gt; order_price  /* 购买价格(下单时sku价格） */: decimal(10,2)&lt;br/&gt; sku_num  /* 购买个数 */: bigint(20)&lt;br/&gt; create_time  /* 创建时间 */: datetime&lt;br/&gt; source_type  /* 来源类型 */: varchar(20)&lt;br/&gt; source_id  /* 来源编号 */: bigint(20)&lt;br/&gt; split_total_amount: decimal(16,2)&lt;br/&gt; split_activity_amount: decimal(16,2)&lt;br/&gt; split_coupon_amount: decimal(16,2)&lt;/p&gt;&lt;hr size=&quot;1&quot;/&gt;&lt;p style=&quot;margin:0 0 0 4px;line-height:1.6;&quot;&gt; id  /* 编号 */: bigint(20)&lt;/p&gt;" style="verticalAlign=top;align=left;overflow=fill;fontSize=14;fontFamily=Helvetica;html=1;rounded=0;shadow=0;comic=0;labelBackgroundColor=none;strokeWidth=1;" parent="1" vertex="1">
          <mxGeometry x="-10480" y="-390" width="358" height="318" as="geometry" />
        </mxCell>
        <mxCell id="node44" value="&lt;p style=&quot;margin:0px;margin-top:4px;text-align:center;&quot;&gt;&lt;b&gt;order_detail_activity  /* 订单明细购物券表 */&lt;/b&gt;&lt;/p&gt;&lt;hr size=&quot;1&quot;/&gt;&lt;p style=&quot;margin:0 0 0 4px;line-height:1.6;&quot;&gt; order_id  /* 订单id */: bigint(20)&lt;br/&gt; order_detail_id  /* 订单明细id */: bigint(20)&lt;br/&gt; activity_id  /* 活动ID */: bigint(20)&lt;br/&gt; activity_rule_id  /* 活动规则 */: bigint(20)&lt;br/&gt; sku_id  /* skuID */: bigint(20)&lt;br/&gt; create_time  /* 获取时间 */: datetime&lt;/p&gt;&lt;hr size=&quot;1&quot;/&gt;&lt;p style=&quot;margin:0 0 0 4px;line-height:1.6;&quot;&gt; id  /* 编号 */: bigint(20)&lt;/p&gt;" style="verticalAlign=top;align=left;overflow=fill;fontSize=14;fontFamily=Helvetica;html=1;rounded=0;shadow=0;comic=0;labelBackgroundColor=none;strokeWidth=1;" parent="1" vertex="1">
          <mxGeometry x="-10856" y="-392" width="316" height="186" as="geometry" />
        </mxCell>
        <mxCell id="node18" value="&lt;p style=&quot;margin:0px;margin-top:4px;text-align:center;&quot;&gt;&lt;b&gt;order_detail_coupon  /* 订单明细购物券表 */&lt;/b&gt;&lt;/p&gt;&lt;hr size=&quot;1&quot;/&gt;&lt;p style=&quot;margin:0 0 0 4px;line-height:1.6;&quot;&gt; order_id  /* 订单id */: bigint(20)&lt;br/&gt; order_detail_id  /* 订单明细id */: bigint(20)&lt;br/&gt; coupon_id  /* 购物券ID */: bigint(20)&lt;br/&gt; coupon_use_id  /* 购物券领用id */: bigint(20)&lt;br/&gt; sku_id  /* skuID */: bigint(20)&lt;br/&gt; create_time  /* 获取时间 */: datetime&lt;/p&gt;&lt;hr size=&quot;1&quot;/&gt;&lt;p style=&quot;margin:0 0 0 4px;line-height:1.6;&quot;&gt; id  /* 编号 */: bigint(20)&lt;/p&gt;" style="verticalAlign=top;align=left;overflow=fill;fontSize=14;fontFamily=Helvetica;html=1;rounded=0;shadow=0;comic=0;labelBackgroundColor=none;strokeWidth=1;" parent="1" vertex="1">
          <mxGeometry x="-10062" y="-311" width="316" height="186" as="geometry" />
        </mxCell>
        <mxCell id="node32" value="&lt;p style=&quot;margin:0px;margin-top:4px;text-align:center;&quot;&gt;&lt;b&gt;order_info  /* 订单表 订单表 */&lt;/b&gt;&lt;/p&gt;&lt;hr size=&quot;1&quot;/&gt;&lt;p style=&quot;margin:0 0 0 4px;line-height:1.6;&quot;&gt; consignee  /* 收货人 */: varchar(100)&lt;br/&gt; consignee_tel  /* 收件人电话 */: varchar(20)&lt;br/&gt; total_amount  /* 总金额 */: decimal(10,2)&lt;br/&gt; order_status  /* 订单状态 */: varchar(20)&lt;br/&gt; user_id  /* 用户id */: bigint(20)&lt;br/&gt; payment_way  /* 付款方式 */: varchar(20)&lt;br/&gt; delivery_address  /* 送货地址 */: varchar(1000)&lt;br/&gt; order_comment  /* 订单备注 */: varchar(200)&lt;br/&gt; out_trade_no  /* 订单交易编号（第三方支付用) */: varchar(50)&lt;br/&gt; trade_body  /* 订单描述(第三方支付用) */: varchar(200)&lt;br/&gt; create_time  /* 创建时间 */: datetime&lt;br/&gt; operate_time  /* 操作时间 */: datetime&lt;br/&gt; expire_time  /* 失效时间 */: datetime&lt;br/&gt; process_status  /* 进度状态 */: varchar(20)&lt;br/&gt; tracking_no  /* 物流单编号 */: varchar(100)&lt;br/&gt; parent_order_id  /* 父订单编号 */: bigint(20)&lt;br/&gt; img_url  /* 图片路径 */: varchar(200)&lt;br/&gt; province_id  /* 地区 */: int(20)&lt;br/&gt; activity_reduce_amount  /* 促销金额 */: decimal(16,2)&lt;br/&gt; coupon_reduce_amount  /* 优惠券 */: decimal(16,2)&lt;br/&gt; original_total_amount  /* 原价金额 */: decimal(16,2)&lt;br/&gt; feight_fee  /* 运费 */: decimal(16,2)&lt;br/&gt; feight_fee_reduce  /* 运费减免 */: decimal(16,2)&lt;br/&gt; refundable_time  /* 可退款日期（签收后30天） */: datetime&lt;/p&gt;&lt;hr size=&quot;1&quot;/&gt;&lt;p style=&quot;margin:0 0 0 4px;line-height:1.6;&quot;&gt; id  /* 编号 */: bigint(20)&lt;/p&gt;" style="verticalAlign=top;align=left;overflow=fill;fontSize=14;fontFamily=Helvetica;html=1;rounded=0;shadow=0;comic=0;labelBackgroundColor=none;strokeWidth=1;" parent="1" vertex="1">
          <mxGeometry x="-11670" y="-710" width="373" height="582" as="geometry" />
        </mxCell>
        <mxCell id="node11" value="&lt;p style=&quot;margin:0px;margin-top:4px;text-align:center;&quot;&gt;&lt;b&gt;order_refund_info  /* 退单表 */&lt;/b&gt;&lt;/p&gt;&lt;hr size=&quot;1&quot;/&gt;&lt;p style=&quot;margin:0 0 0 4px;line-height:1.6;&quot;&gt; user_id  /* 用户id */: bigint(20)&lt;br/&gt; order_id  /* 订单id */: bigint(20)&lt;br/&gt; sku_id  /* skuid */: bigint(20)&lt;br/&gt; refund_type  /* 退款类型 */: varchar(20)&lt;br/&gt; refund_num  /* 退货件数 */: bigint(20)&lt;br/&gt; refund_amount  /* 退款金额 */: decimal(16,2)&lt;br/&gt; refund_reason_type  /* 原因类型 */: varchar(200)&lt;br/&gt; refund_reason_txt  /* 原因内容 */: varchar(20)&lt;br/&gt; refund_status  /* 退款状态（0：待审批 1：已退款） */: varchar(10)&lt;br/&gt; create_time  /* 创建时间 */: datetime&lt;/p&gt;&lt;hr size=&quot;1&quot;/&gt;&lt;p style=&quot;margin:0 0 0 4px;line-height:1.6;&quot;&gt; id  /* 编号 */: bigint(20)&lt;/p&gt;" style="verticalAlign=top;align=left;overflow=fill;fontSize=14;fontFamily=Helvetica;html=1;rounded=0;shadow=0;comic=0;labelBackgroundColor=none;strokeWidth=1;" parent="1" vertex="1">
          <mxGeometry x="-12002" y="355" width="397" height="274" as="geometry" />
        </mxCell>
        <mxCell id="node0" value="&lt;p style=&quot;margin:0px;margin-top:4px;text-align:center;&quot;&gt;&lt;b&gt;order_status_log&lt;/b&gt;&lt;/p&gt;&lt;hr size=&quot;1&quot;/&gt;&lt;p style=&quot;margin:0 0 0 4px;line-height:1.6;&quot;&gt; order_id: bigint(11)&lt;br/&gt; order_status: varchar(11)&lt;br/&gt; operate_time: datetime&lt;/p&gt;&lt;hr size=&quot;1&quot;/&gt;&lt;p style=&quot;margin:0 0 0 4px;line-height:1.6;&quot;&gt; id: bigint(11)&lt;/p&gt;" style="verticalAlign=top;align=left;overflow=fill;fontSize=14;fontFamily=Helvetica;html=1;rounded=0;shadow=0;comic=0;labelBackgroundColor=none;strokeWidth=1;" parent="1" vertex="1">
          <mxGeometry x="-9724" y="1151" width="187" height="130" as="geometry" />
        </mxCell>
        <mxCell id="node7" value="&lt;p style=&quot;margin:0px;margin-top:4px;text-align:center;&quot;&gt;&lt;b&gt;payment_info  /* 支付信息表 */&lt;/b&gt;&lt;/p&gt;&lt;hr size=&quot;1&quot;/&gt;&lt;p style=&quot;margin:0 0 0 4px;line-height:1.6;&quot;&gt; out_trade_no  /* 对外业务编号 */: varchar(50)&lt;br/&gt; order_id  /* 订单编号 */: bigint(50)&lt;br/&gt; user_id: bigint(20)&lt;br/&gt; payment_type  /* 支付类型（微信 支付宝） */: varchar(20)&lt;br/&gt; trade_no  /* 交易编号 */: varchar(50)&lt;br/&gt; total_amount  /* 支付金额 */: decimal(10,2)&lt;br/&gt; subject  /* 交易内容 */: varchar(200)&lt;br/&gt; payment_status  /* 支付状态 */: varchar(20)&lt;br/&gt; create_time  /* 创建时间 */: datetime&lt;br/&gt; callback_time  /* 回调时间 */: datetime&lt;br/&gt; callback_content  /* 回调信息 */: text&lt;/p&gt;&lt;hr size=&quot;1&quot;/&gt;&lt;p style=&quot;margin:0 0 0 4px;line-height:1.6;&quot;&gt; id  /* 编号 */: int(11)&lt;/p&gt;" style="verticalAlign=top;align=left;overflow=fill;fontSize=14;fontFamily=Helvetica;html=1;rounded=0;shadow=0;comic=0;labelBackgroundColor=none;strokeWidth=1;" parent="1" vertex="1">
          <mxGeometry x="-10191" y="99" width="356" height="296" as="geometry" />
        </mxCell>
        <mxCell id="node30" value="&lt;p style=&quot;margin:0px;margin-top:4px;text-align:center;&quot;&gt;&lt;b&gt;refund_payment  /* 退款信息表 */&lt;/b&gt;&lt;/p&gt;&lt;hr size=&quot;1&quot;/&gt;&lt;p style=&quot;margin:0 0 0 4px;line-height:1.6;&quot;&gt; out_trade_no  /* 对外业务编号 */: varchar(50)&lt;br/&gt; order_id  /* 订单编号 */: bigint(20)&lt;br/&gt; sku_id: bigint(20)&lt;br/&gt; payment_type  /* 支付类型（微信 支付宝） */: varchar(20)&lt;br/&gt; trade_no  /* 交易编号 */: varchar(50)&lt;br/&gt; total_amount  /* 退款金额 */: decimal(10,2)&lt;br/&gt; subject  /* 交易内容 */: varchar(200)&lt;br/&gt; refund_status  /* 退款状态 */: varchar(30)&lt;br/&gt; create_time  /* 创建时间 */: datetime&lt;br/&gt; callback_time  /* 回调时间 */: datetime&lt;br/&gt; callback_content  /* 回调信息 */: text&lt;/p&gt;&lt;hr size=&quot;1&quot;/&gt;&lt;p style=&quot;margin:0 0 0 4px;line-height:1.6;&quot;&gt; id  /* 编号 */: int(11)&lt;/p&gt;" style="verticalAlign=top;align=left;overflow=fill;fontSize=14;fontFamily=Helvetica;html=1;rounded=0;shadow=0;comic=0;labelBackgroundColor=none;strokeWidth=1;" parent="1" vertex="1">
          <mxGeometry x="-9767" y="84" width="356" height="296" as="geometry" />
        </mxCell>
        <mxCell id="node4" value="&lt;p style=&quot;margin:0px;margin-top:4px;text-align:center;&quot;&gt;&lt;b&gt;seckill_goods&lt;/b&gt;&lt;/p&gt;&lt;hr size=&quot;1&quot;/&gt;&lt;p style=&quot;margin:0 0 0 4px;line-height:1.6;&quot;&gt; spu_id  /* spu_id */: bigint(20)&lt;br/&gt; sku_id  /* sku_id */: bigint(20)&lt;br/&gt; sku_name  /* 标题 */: varchar(100)&lt;br/&gt; sku_default_img  /* 商品图片 */: varchar(150)&lt;br/&gt; price  /* 原价格 */: decimal(10,2)&lt;br/&gt; cost_price  /* 秒杀价格 */: decimal(10,2)&lt;br/&gt; create_time  /* 添加日期 */: datetime&lt;br/&gt; check_time  /* 审核日期 */: datetime&lt;br/&gt; status  /* 审核状态 */: varchar(1)&lt;br/&gt; start_time  /* 开始时间 */: datetime&lt;br/&gt; end_time  /* 结束时间 */: datetime&lt;br/&gt; num  /* 秒杀商品数 */: int(11)&lt;br/&gt; stock_count  /* 剩余库存数 */: int(11)&lt;br/&gt; sku_desc  /* 描述 */: varchar(2000)&lt;/p&gt;&lt;hr size=&quot;1&quot;/&gt;&lt;p style=&quot;margin:0 0 0 4px;line-height:1.6;&quot;&gt; id: bigint(20)&lt;/p&gt;" style="verticalAlign=top;align=left;overflow=fill;fontSize=14;fontFamily=Helvetica;html=1;rounded=0;shadow=0;comic=0;labelBackgroundColor=none;strokeWidth=1;" parent="1" vertex="1">
          <mxGeometry x="-12113" y="-85" width="297" height="362" as="geometry" />
        </mxCell>
        <mxCell id="S1Js2mbnpHXQtX6JEDjQ-17" value="" style="edgeStyle=orthogonalEdgeStyle;rounded=1;orthogonalLoop=1;jettySize=auto;html=1;strokeColor=#FF0080;strokeWidth=5;" edge="1" parent="1" source="node16" target="node45">
          <mxGeometry relative="1" as="geometry" />
        </mxCell>
        <mxCell id="node16" value="&lt;p style=&quot;margin:0px;margin-top:4px;text-align:center;&quot;&gt;&lt;b&gt;sku_attr_value  /* sku平台属性值关联表 */&lt;/b&gt;&lt;/p&gt;&lt;hr size=&quot;1&quot;/&gt;&lt;p style=&quot;margin:0 0 0 4px;line-height:1.6;&quot;&gt; attr_id  /* 属性id（冗余) */: bigint(20)&lt;br/&gt; value_id  /* 属性值id */: bigint(20)&lt;br/&gt; sku_id  /* skuid */: bigint(20)&lt;br/&gt; attr_name  /* 属性名 */: varchar(30)&lt;br/&gt; value_name  /* 属性值名称 */: varchar(30)&lt;/p&gt;&lt;hr size=&quot;1&quot;/&gt;&lt;p style=&quot;margin:0 0 0 4px;line-height:1.6;&quot;&gt; id  /* 编号 */: bigint(20)&lt;/p&gt;" style="verticalAlign=top;align=left;overflow=fill;fontSize=14;fontFamily=Helvetica;html=1;rounded=0;shadow=0;comic=0;labelBackgroundColor=none;strokeWidth=1;" parent="1" vertex="1">
          <mxGeometry x="-624" y="-2890" width="290" height="164" as="geometry" />
        </mxCell>
        <mxCell id="node37" value="&lt;p style=&quot;margin:0px;margin-top:4px;text-align:center;&quot;&gt;&lt;b&gt;sku_image  /* 库存单元图片表 */&lt;/b&gt;&lt;/p&gt;&lt;hr size=&quot;1&quot;/&gt;&lt;p style=&quot;margin:0 0 0 4px;line-height:1.6;&quot;&gt; sku_id  /* 商品id */: bigint(20)&lt;br/&gt; img_name  /* 图片名称（冗余） */: varchar(200)&lt;br/&gt; img_url  /* 图片路径(冗余) */: varchar(300)&lt;br/&gt; spu_img_id  /* 商品图片id */: bigint(20)&lt;br/&gt; is_default  /* 是否默认 */: varchar(4000)&lt;/p&gt;&lt;hr size=&quot;1&quot;/&gt;&lt;p style=&quot;margin:0 0 0 4px;line-height:1.6;&quot;&gt; id  /* 编号 */: bigint(20)&lt;/p&gt;" style="verticalAlign=top;align=left;overflow=fill;fontSize=14;fontFamily=Helvetica;html=1;rounded=0;shadow=0;comic=0;labelBackgroundColor=none;strokeWidth=1;" parent="1" vertex="1">
          <mxGeometry x="-11174" y="965" width="302" height="164" as="geometry" />
        </mxCell>
        <mxCell id="S1Js2mbnpHXQtX6JEDjQ-8" style="edgeStyle=orthogonalEdgeStyle;rounded=1;orthogonalLoop=1;jettySize=auto;html=1;entryX=0.5;entryY=0;entryDx=0;entryDy=0;strokeColor=#FF0080;strokeWidth=5;" edge="1" parent="1" source="node12" target="node2">
          <mxGeometry relative="1" as="geometry" />
        </mxCell>
        <mxCell id="node12" value="&lt;p style=&quot;margin:0px;margin-top:4px;text-align:center;&quot;&gt;&lt;b&gt;sku_info  /* 库存单元表 */&lt;/b&gt;&lt;/p&gt;&lt;hr size=&quot;1&quot;/&gt;&lt;p style=&quot;margin:0 0 0 4px;line-height:1.6;&quot;&gt; spu_id  /* 商品id */: bigint(20)&lt;br/&gt; price  /* 价格 */: decimal(10)&lt;br/&gt; sku_name  /* sku名称 */: varchar(200)&lt;br/&gt; sku_desc  /* 商品规格描述 */: varchar(2000)&lt;br/&gt; weight  /* 重量 */: decimal(10,2)&lt;br/&gt; tm_id  /* 品牌(冗余) */: bigint(20)&lt;br/&gt; category3_id  /* 三级分类id（冗余) */: bigint(20)&lt;br/&gt; sku_default_img  /* 默认显示图片(冗余) */: varchar(300)&lt;br/&gt; is_sale  /* 是否销售（1：是 0：否） */: tinyint(3)&lt;br/&gt; create_time  /* 创建时间 */: datetime&lt;/p&gt;&lt;hr size=&quot;1&quot;/&gt;&lt;p style=&quot;margin:0 0 0 4px;line-height:1.6;&quot;&gt; id  /* 库存id(itemID) */: bigint(20)&lt;/p&gt;" style="verticalAlign=top;align=left;overflow=fill;fontSize=14;fontFamily=Helvetica;html=1;rounded=0;shadow=0;comic=0;labelBackgroundColor=none;strokeWidth=1;" parent="1" vertex="1">
          <mxGeometry x="-1440.5" y="-3080" width="352" height="274" as="geometry" />
        </mxCell>
        <mxCell id="S1Js2mbnpHXQtX6JEDjQ-16" value="" style="edgeStyle=orthogonalEdgeStyle;rounded=1;orthogonalLoop=1;jettySize=auto;html=1;strokeColor=#FF0080;strokeWidth=5;" edge="1" parent="1" source="node33" target="node36">
          <mxGeometry relative="1" as="geometry" />
        </mxCell>
        <mxCell id="node33" value="&lt;p style=&quot;margin:0px;margin-top:4px;text-align:center;&quot;&gt;&lt;b&gt;sku_sale_attr_value  /* sku销售属性值 */&lt;/b&gt;&lt;/p&gt;&lt;hr size=&quot;1&quot;/&gt;&lt;p style=&quot;margin:0 0 0 4px;line-height:1.6;&quot;&gt; sku_id  /* 库存单元id */: bigint(20)&lt;br/&gt; spu_id  /* spu_id(冗余) */: int(11)&lt;br/&gt; sale_attr_value_id  /* 销售属性值id */: bigint(20)&lt;br/&gt; sale_attr_id: bigint(20)&lt;br/&gt; sale_attr_name: varchar(30)&lt;br/&gt; sale_attr_value_name: varchar(30)&lt;/p&gt;&lt;hr size=&quot;1&quot;/&gt;&lt;p style=&quot;margin:0 0 0 4px;line-height:1.6;&quot;&gt; id  /* id */: bigint(20)&lt;/p&gt;" style="verticalAlign=top;align=left;overflow=fill;fontSize=14;fontFamily=Helvetica;html=1;rounded=0;shadow=0;comic=0;labelBackgroundColor=none;strokeWidth=1;" parent="1" vertex="1">
          <mxGeometry x="-635" y="-3110" width="312" height="186" as="geometry" />
        </mxCell>
        <mxCell id="node5" value="&lt;p style=&quot;margin:0px;margin-top:4px;text-align:center;&quot;&gt;&lt;b&gt;spu_image  /* 商品图片表 */&lt;/b&gt;&lt;/p&gt;&lt;hr size=&quot;1&quot;/&gt;&lt;p style=&quot;margin:0 0 0 4px;line-height:1.6;&quot;&gt; spu_id  /* 商品id */: bigint(20)&lt;br/&gt; img_name  /* 图片名称 */: varchar(200)&lt;br/&gt; img_url  /* 图片路径 */: varchar(300)&lt;/p&gt;&lt;hr size=&quot;1&quot;/&gt;&lt;p style=&quot;margin:0 0 0 4px;line-height:1.6;&quot;&gt; id  /* 编号 */: bigint(20)&lt;/p&gt;" style="verticalAlign=top;align=left;overflow=fill;fontSize=14;fontFamily=Helvetica;html=1;rounded=0;shadow=0;comic=0;labelBackgroundColor=none;strokeWidth=1;" parent="1" vertex="1">
          <mxGeometry x="-10664" y="1189" width="258" height="130" as="geometry" />
        </mxCell>
        <mxCell id="S1Js2mbnpHXQtX6JEDjQ-7" style="edgeStyle=orthogonalEdgeStyle;rounded=1;orthogonalLoop=1;jettySize=auto;html=1;entryX=0.468;entryY=-0.002;entryDx=0;entryDy=0;entryPerimeter=0;strokeWidth=5;strokeColor=#FF0080;" edge="1" parent="1" source="node15" target="node12">
          <mxGeometry relative="1" as="geometry" />
        </mxCell>
        <mxCell id="node15" value="&lt;p style=&quot;margin:0px;margin-top:4px;text-align:center;&quot;&gt;&lt;b&gt;spu_info  /* 商品表 */&lt;/b&gt;&lt;/p&gt;&lt;hr size=&quot;1&quot;/&gt;&lt;p style=&quot;margin:0 0 0 4px;line-height:1.6;&quot;&gt; spu_name  /* 商品名称 */: varchar(200)&lt;br/&gt; description  /* 商品描述(后台简述） */: varchar(1000)&lt;br/&gt; category3_id  /* 三级分类id */: bigint(20)&lt;br/&gt; tm_id  /* 品牌id */: bigint(20)&lt;/p&gt;&lt;hr size=&quot;1&quot;/&gt;&lt;p style=&quot;margin:0 0 0 4px;line-height:1.6;&quot;&gt; id  /* 商品id */: bigint(20)&lt;/p&gt;" style="verticalAlign=top;align=left;overflow=fill;fontSize=14;fontFamily=Helvetica;html=1;rounded=0;shadow=0;comic=0;labelBackgroundColor=none;strokeWidth=1;" parent="1" vertex="1">
          <mxGeometry x="-1440" y="-3290" width="329" height="142" as="geometry" />
        </mxCell>
        <mxCell id="node42" value="&lt;p style=&quot;margin:0px;margin-top:4px;text-align:center;&quot;&gt;&lt;b&gt;spu_poster  /* 商品海报表 */&lt;/b&gt;&lt;/p&gt;&lt;hr size=&quot;1&quot;/&gt;&lt;p style=&quot;margin:0 0 0 4px;line-height:1.6;&quot;&gt; spu_id  /* 商品id */: bigint(20)&lt;br/&gt; img_name  /* 文件名称 */: varchar(200)&lt;br/&gt; img_url  /* 文件路径 */: varchar(200)&lt;br/&gt; create_time  /* 创建时间 */: datetime&lt;br/&gt; update_time  /* 更新时间 */: datetime&lt;br/&gt; is_deleted  /* 逻辑删除 1（true）已删除， 0（false）未删除 */: tinyint(3)&lt;/p&gt;&lt;hr size=&quot;1&quot;/&gt;&lt;p style=&quot;margin:0 0 0 4px;line-height:1.6;&quot;&gt; id  /* 编号 */: bigint(20)&lt;/p&gt;" style="verticalAlign=top;align=left;overflow=fill;fontSize=14;fontFamily=Helvetica;html=1;rounded=0;shadow=0;comic=0;labelBackgroundColor=none;strokeWidth=1;" parent="1" vertex="1">
          <mxGeometry x="-12170" y="690" width="419" height="186" as="geometry" />
        </mxCell>
        <mxCell id="S1Js2mbnpHXQtX6JEDjQ-15" style="edgeStyle=orthogonalEdgeStyle;rounded=1;orthogonalLoop=1;jettySize=auto;html=1;strokeColor=#FF0080;strokeWidth=5;" edge="1" parent="1" source="node25">
          <mxGeometry relative="1" as="geometry">
            <mxPoint x="-1110" y="-3219" as="targetPoint" />
          </mxGeometry>
        </mxCell>
        <mxCell id="node25" value="&lt;p style=&quot;margin:0px;margin-top:4px;text-align:center;&quot;&gt;&lt;b&gt;spu_sale_attr  /* spu销售属性 */&lt;/b&gt;&lt;/p&gt;&lt;hr size=&quot;1&quot;/&gt;&lt;p style=&quot;margin:0 0 0 4px;line-height:1.6;&quot;&gt; spu_id  /* 商品id */: bigint(20)&lt;br/&gt; base_sale_attr_id  /* 销售属性id */: bigint(20)&lt;br/&gt; sale_attr_name  /* 销售属性名称(冗余) */: varchar(20)&lt;/p&gt;&lt;hr size=&quot;1&quot;/&gt;&lt;p style=&quot;margin:0 0 0 4px;line-height:1.6;&quot;&gt; id  /* 编号(业务中无关联) */: bigint(20)&lt;/p&gt;" style="verticalAlign=top;align=left;overflow=fill;fontSize=14;fontFamily=Helvetica;html=1;rounded=0;shadow=0;comic=0;labelBackgroundColor=none;strokeWidth=1;" parent="1" vertex="1">
          <mxGeometry x="-1050" y="-3284" width="335" height="130" as="geometry" />
        </mxCell>
        <mxCell id="S1Js2mbnpHXQtX6JEDjQ-14" style="edgeStyle=orthogonalEdgeStyle;rounded=1;orthogonalLoop=1;jettySize=auto;html=1;strokeColor=#FF0080;strokeWidth=5;" edge="1" parent="1" source="node36">
          <mxGeometry relative="1" as="geometry">
            <mxPoint x="-710" y="-3213" as="targetPoint" />
          </mxGeometry>
        </mxCell>
        <mxCell id="node36" value="&lt;p style=&quot;margin:0px;margin-top:4px;text-align:center;&quot;&gt;&lt;b&gt;spu_sale_attr_value  /* spu销售属性值 */&lt;/b&gt;&lt;/p&gt;&lt;hr size=&quot;1&quot;/&gt;&lt;p style=&quot;margin:0 0 0 4px;line-height:1.6;&quot;&gt; spu_id  /* 商品id */: bigint(20)&lt;br/&gt; base_sale_attr_id  /* 销售属性id */: bigint(20)&lt;br/&gt; sale_attr_value_name  /* 销售属性值名称 */: varchar(20)&lt;br/&gt; sale_attr_name  /* 销售属性名称(冗余) */: varchar(20)&lt;/p&gt;&lt;hr size=&quot;1&quot;/&gt;&lt;p style=&quot;margin:0 0 0 4px;line-height:1.6;&quot;&gt; id  /* 销售属性值编号 */: bigint(20)&lt;/p&gt;" style="verticalAlign=top;align=left;overflow=fill;fontSize=14;fontFamily=Helvetica;html=1;rounded=0;shadow=0;comic=0;labelBackgroundColor=none;strokeWidth=1;" parent="1" vertex="1">
          <mxGeometry x="-658" y="-3284" width="358" height="142" as="geometry" />
        </mxCell>
        <mxCell id="node24" value="&lt;p style=&quot;margin:0px;margin-top:4px;text-align:center;&quot;&gt;&lt;b&gt;user_address  /* 用户地址表 */&lt;/b&gt;&lt;/p&gt;&lt;hr size=&quot;1&quot;/&gt;&lt;p style=&quot;margin:0 0 0 4px;line-height:1.6;&quot;&gt; user_id  /* 用户id */: bigint(20)&lt;br/&gt; province_id  /* 省份id */: bigint(20)&lt;br/&gt; user_address  /* 用户地址 */: varchar(500)&lt;br/&gt; consignee  /* 收件人 */: varchar(40)&lt;br/&gt; phone_num  /* 联系方式 */: varchar(40)&lt;br/&gt; is_default  /* 是否是默认 */: varchar(1)&lt;/p&gt;&lt;hr size=&quot;1&quot;/&gt;&lt;p style=&quot;margin:0 0 0 4px;line-height:1.6;&quot;&gt; id  /* 编号 */: bigint(20)&lt;/p&gt;" style="verticalAlign=top;align=left;overflow=fill;fontSize=14;fontFamily=Helvetica;html=1;rounded=0;shadow=0;comic=0;labelBackgroundColor=none;strokeWidth=1;" parent="1" vertex="1">
          <mxGeometry x="-10403" y="699" width="279" height="186" as="geometry" />
        </mxCell>
        <mxCell id="node28" value="&lt;p style=&quot;margin:0px;margin-top:4px;text-align:center;&quot;&gt;&lt;b&gt;user_info&lt;/b&gt;&lt;/p&gt;&lt;hr size=&quot;1&quot;/&gt;&lt;p style=&quot;margin:0 0 0 4px;line-height:1.6;&quot;&gt; login_name  /* 用户名称 */: varchar(200)&lt;br/&gt; nick_name  /* 用户昵称 */: varchar(200)&lt;br/&gt; passwd  /* 用户密码 */: varchar(200)&lt;br/&gt; name  /* 用户姓名 */: varchar(200)&lt;br/&gt; phone_num  /* 手机号 */: varchar(200)&lt;br/&gt; email  /* 邮箱 */: varchar(200)&lt;br/&gt; head_img  /* 头像 */: varchar(200)&lt;br/&gt; user_level  /* 用户级别 */: varchar(200)&lt;br/&gt; birthday  /* 用户生日 */: date&lt;br/&gt; gender  /* 性别 M男,F女 */: varchar(1)&lt;br/&gt; create_time  /* 创建时间 */: datetime&lt;br/&gt; operate_time  /* 修改时间 */: datetime&lt;br/&gt; status  /* 状态 */: varchar(200)&lt;/p&gt;&lt;hr size=&quot;1&quot;/&gt;&lt;p style=&quot;margin:0 0 0 4px;line-height:1.6;&quot;&gt; id  /* 编号 */: bigint(20)&lt;/p&gt;" style="verticalAlign=top;align=left;overflow=fill;fontSize=14;fontFamily=Helvetica;html=1;rounded=0;shadow=0;comic=0;labelBackgroundColor=none;strokeWidth=1;" parent="1" vertex="1">
          <mxGeometry x="-10965" y="-18" width="266" height="340" as="geometry" />
        </mxCell>
        <mxCell id="node35" value="&lt;p style=&quot;margin:0px;margin-top:4px;text-align:center;&quot;&gt;&lt;b&gt;ware_info&lt;/b&gt;&lt;/p&gt;&lt;hr size=&quot;1&quot;/&gt;&lt;p style=&quot;margin:0 0 0 4px;line-height:1.6;&quot;&gt; name: varchar(200)&lt;br/&gt; address: varchar(200)&lt;br/&gt; areacode: varchar(20)&lt;/p&gt;&lt;hr size=&quot;1&quot;/&gt;&lt;p style=&quot;margin:0 0 0 4px;line-height:1.6;&quot;&gt; id: bigint(20)&lt;/p&gt;" style="verticalAlign=top;align=left;overflow=fill;fontSize=14;fontFamily=Helvetica;html=1;rounded=0;shadow=0;comic=0;labelBackgroundColor=none;strokeWidth=1;" parent="1" vertex="1">
          <mxGeometry x="-11702" y="1417" width="168" height="130" as="geometry" />
        </mxCell>
        <mxCell id="node8" value="&lt;p style=&quot;margin:0px;margin-top:4px;text-align:center;&quot;&gt;&lt;b&gt;ware_order_task  /* 库存工作单表 库存工作单表 */&lt;/b&gt;&lt;/p&gt;&lt;hr size=&quot;1&quot;/&gt;&lt;p style=&quot;margin:0 0 0 4px;line-height:1.6;&quot;&gt; order_id  /* 订单编号 */: bigint(20)&lt;br/&gt; consignee  /* 收货人 */: varchar(100)&lt;br/&gt; consignee_tel  /* 收货人电话 */: varchar(20)&lt;br/&gt; delivery_address  /* 送货地址 */: varchar(1000)&lt;br/&gt; order_comment  /* 订单备注 */: varchar(200)&lt;br/&gt; payment_way  /* 付款方式 1:在线付款 2:货到付款 */: varchar(2)&lt;br/&gt; task_status  /* 工作单状态 */: varchar(20)&lt;br/&gt; order_body  /* 订单描述 */: varchar(200)&lt;br/&gt; tracking_no  /* 物流单号 */: varchar(200)&lt;br/&gt; create_time  /* 创建时间 */: datetime&lt;br/&gt; ware_id  /* 仓库编号 */: bigint(20)&lt;br/&gt; task_comment  /* 工作单备注 */: varchar(500)&lt;/p&gt;&lt;hr size=&quot;1&quot;/&gt;&lt;p style=&quot;margin:0 0 0 4px;line-height:1.6;&quot;&gt; id  /* 编号 */: bigint(20)&lt;/p&gt;" style="verticalAlign=top;align=left;overflow=fill;fontSize=14;fontFamily=Helvetica;html=1;rounded=0;shadow=0;comic=0;labelBackgroundColor=none;strokeWidth=1;" parent="1" vertex="1">
          <mxGeometry x="-10637" y="76" width="377" height="318" as="geometry" />
        </mxCell>
        <mxCell id="node14" value="&lt;p style=&quot;margin:0px;margin-top:4px;text-align:center;&quot;&gt;&lt;b&gt;ware_order_task_detail  /* 库存工作单明细表 库存工作单明细表 */&lt;/b&gt;&lt;/p&gt;&lt;hr size=&quot;1&quot;/&gt;&lt;p style=&quot;margin:0 0 0 4px;line-height:1.6;&quot;&gt; sku_id  /* sku_id */: bigint(20)&lt;br/&gt; sku_name  /* sku名称 */: varchar(200)&lt;br/&gt; sku_num  /* 购买个数 */: int(11)&lt;br/&gt; task_id  /* 工作单编号 */: bigint(20)&lt;br/&gt; refund_status: varchar(20)&lt;/p&gt;&lt;hr size=&quot;1&quot;/&gt;&lt;p style=&quot;margin:0 0 0 4px;line-height:1.6;&quot;&gt; id  /* 编号 */: bigint(20)&lt;/p&gt;" style="verticalAlign=top;align=left;overflow=fill;fontSize=14;fontFamily=Helvetica;html=1;rounded=0;shadow=0;comic=0;labelBackgroundColor=none;strokeWidth=1;" parent="1" vertex="1">
          <mxGeometry x="-12007" y="983" width="430" height="164" as="geometry" />
        </mxCell>
        <mxCell id="node34" value="&lt;p style=&quot;margin:0px;margin-top:4px;text-align:center;&quot;&gt;&lt;b&gt;ware_sku  /* sku与仓库关联表 */&lt;/b&gt;&lt;/p&gt;&lt;hr size=&quot;1&quot;/&gt;&lt;p style=&quot;margin:0 0 0 4px;line-height:1.6;&quot;&gt; sku_id  /* skuid */: bigint(20)&lt;br/&gt; warehouse_id  /* 仓库id */: bigint(20)&lt;br/&gt; stock  /* 库存数 */: int(11)&lt;br/&gt; stock_name  /* 存货名称 */: varchar(200)&lt;br/&gt; stock_locked  /* 锁定库存数 */: int(11)&lt;/p&gt;&lt;hr size=&quot;1&quot;/&gt;&lt;p style=&quot;margin:0 0 0 4px;line-height:1.6;&quot;&gt; id  /* 编号 */: bigint(20)&lt;/p&gt;" style="verticalAlign=top;align=left;overflow=fill;fontSize=14;fontFamily=Helvetica;html=1;rounded=0;shadow=0;comic=0;labelBackgroundColor=none;strokeWidth=1;" parent="1" vertex="1">
          <mxGeometry x="-10399" y="959" width="270" height="164" as="geometry" />
        </mxCell>
        <mxCell id="S1Js2mbnpHXQtX6JEDjQ-12" value="" style="endArrow=classic;html=1;rounded=1;strokeColor=#FF0080;strokeWidth=5;" edge="1" parent="1">
          <mxGeometry width="50" height="50" relative="1" as="geometry">
            <mxPoint x="-1440.5" y="-3030" as="sourcePoint" />
            <mxPoint x="-1600" y="-3160" as="targetPoint" />
          </mxGeometry>
        </mxCell>
      </root>
    </mxGraphModel>
  </diagram>
</mxfile>
